Coordinates
version=1
nRows=8
nColumns=40
inDegrees=yes

Units are S.I. units (second, meters, Newtons, ...)
Angles are in degrees.

endheader
time	pelvis_tilt	pelvis_list	pelvis_rotation	pelvis_tx	pelvis_ty	pelvis_tz	hip_flexion_r	hip_adduction_r	hip_rotation_r	knee_angle_r	knee_angle_r_beta	ankle_angle_r	subtalar_angle_r	mtp_angle_r	hip_flexion_l	hip_adduction_l	hip_rotation_l	knee_angle_l	knee_angle_l_beta	ankle_angle_l	subtalar_angle_l	mtp_angle_l	lumbar_extension	lumbar_bending	lumbar_rotation	arm_flex_r	arm_add_r	arm_rot_r	elbow_flex_r	pro_sup_r	wrist_flex_r	wrist_dev_r	arm_flex_l	arm_add_l	arm_rot_l	elbow_flex_l	pro_sup_l	wrist_flex_l	wrist_dev_l
     42.57614286	     -4.78761116	     -4.20258272	      5.57934664	      0.93264265	      0.93214622	      0.51127615	      8.75029524	      3.85145175	    -18.12470261	     13.22304812	     13.22304812	     11.55547231	      2.98713212	     -4.41275275	     32.99507959	     -9.68337245	      0.54557296	     35.99407511	     35.99407511	      7.75763318	    -14.83801032	      7.54105209	     -9.44833745	      6.63921267	      3.31270624	     30.58834839	    -18.75441870	     -4.82312653	     81.01953057	     45.00871721	      0.00000000	      0.00000000	     -4.74156283	     -6.09729404	     -8.59239478	     28.54755937	     46.62248279	      0.00000000	      0.00000000
     42.58978571	     -4.93904190	     -4.31930147	      5.85473569	      0.93149072	      0.93170202	      0.51113657	      8.38068954	      4.02478597	    -18.31294074	     12.94751898	     12.94751898	     11.74699186	      3.05184919	     -4.44114903	     32.90080831	     -9.45652639	      0.15061042	     31.73903954	     31.73903954	      8.09653574	    -13.43125011	      7.96385639	     -9.33955495	      6.85522746	      3.44113177	     32.23684818	    -18.70220086	     -4.93367462	     82.10347476	     44.98688591	      0.00000000	      0.00000000	     -5.20586879	     -6.31287930	     -8.60574018	     28.27262800	     46.61216715	      0.00000000	      0.00000000
     42.60342857	     -5.03569184	     -4.44692343	      6.12454572	      0.93042760	      0.93121326	      0.51077204	      7.93504748	      4.19338231	    -18.60382216	     12.65726974	     12.65726974	     11.95837582	      3.29063670	     -4.49230871	     32.71677332	     -9.21405170	     -0.22065210	     27.66973793	     27.66973793	      8.39660252	    -11.79150009	      8.37581442	     -9.28751040	      7.11036167	      3.45890260	     33.82257415	    -18.57909515	     -4.92168171	     83.35214055	     44.95548646	      0.00000000	      0.00000000	     -5.64807289	     -6.46545165	     -8.57945533	     28.02246372	     46.59616836	      0.00000000	      0.00000000
     42.61707143	     -4.99084149	     -4.65198748	      6.38912000	      0.92954910	      0.93079896	      0.51028927	      7.29633445	      4.43701380	    -19.12660822	     12.31649874	     12.31649874	     12.22002219	      3.97217046	     -4.53610849	     32.45040997	     -9.08209502	     -0.64940753	     24.01715529	     24.01715529	      8.64090421	     -9.91575001	      8.69857667	     -9.40689177	      7.50195570	      3.35722723	     35.28538590	    -18.37405422	     -4.64311501	     85.10003180	     44.90369330	      0.00000000	      0.00000000	     -6.16558474	     -6.65723817	     -8.45884579	     27.80148320	     46.55750018	      0.00000000	      0.00000000
     42.63071429	     -5.15611936	     -4.90841923	      6.59779829	      0.92853012	      0.92995769	      0.50970315	      7.03829946	      4.70182923	    -19.35395325	     12.22197877	     12.22197877	     12.46228608	      4.09622716	     -4.62632573	     32.53286371	     -8.93569060	     -0.89229971	     20.91423852	     20.91423852	      8.72757189	     -8.40227888	      9.19560355	     -9.22977416	      7.88939094	      3.55053538	     36.65886055	    -18.42081541	     -4.65291929	     85.98419610	     44.88379034	      0.00000000	      0.00000000	     -6.51590617	     -6.73971781	     -8.41485365	     27.69189383	     46.54177569	      0.00000000	      0.00000000
     42.64435714	     -5.06314094	     -4.91986794	      6.73282695	      0.92786516	      0.92970427	      0.50900859	      6.36656189	      4.74833348	    -19.55390569	     11.97478080	     11.97478080	     12.74862204	      4.49416244	     -4.65769878	     32.17935090	     -8.66633928	     -1.52267569	     18.12258642	     18.12258642	      8.74947090	     -6.70062173	      9.78028833	     -9.39612410	      8.02761666	      3.49418749	     37.81906028	    -18.09569311	     -4.39736072	     87.31654792	     44.84229828	      0.00000000	      0.00000000	     -7.00602804	     -6.92679593	     -8.29928328	     27.59769722	     46.50863997	      0.00000000	      0.00000000
     42.65800000	     -5.06320234	     -5.06363381	      6.86015011	      0.92716529	      0.92920194	      0.50817170	      5.84549974	      4.90927529	    -19.76067819	     11.78872427	     11.78872427	     13.01356714	      4.83535770	     -4.67569857	     32.18107475	     -8.50882892	     -2.00311815	     16.20077595	     16.20077595	      8.67376197	     -5.41524837	     10.27756858	     -9.43396861	      8.30036814	      3.52447656	     38.89746044	    -17.90624425	     -4.20639923	     88.43348087	     44.80978603	      0.00000000	      0.00000000	     -7.41897983	     -7.00205915	     -8.17025030	     27.62001528	     46.47457401	      0.00000000	      0.00000000
     42.67164286	     -5.04342715	     -5.21053629	      6.95208837	      0.92663241	      0.92872824	      0.50725134	      5.27039730	      5.06284645	    -20.03846361	     11.57956466	     11.57956466	     13.32130425	      5.40568868	     -4.54413140	     32.29627315	     -8.40862766	     -2.51160188	     15.07048121	     15.07048121	      8.63938792	     -4.30587139	     10.71444473	     -9.48930693	      8.56061715	      3.58517245	     39.78801378	    -17.78266926	     -3.86341796	     89.80353524	     44.77293639	      0.00000000	      0.00000000	     -7.95704546	     -7.10004281	     -7.82062104	     28.02638245	     46.39338954	      0.00000000	      0.00000000
